<svg width="24" height="19" viewBox="0 0 24 19" fill="none" xmlns="http://www.w3.org/2000/svg">
<path d="M24 2.53746C22.4903 2.60476 22.5233 2.59927 22.3526 2.61309L23.2467 0.143266C23.2467 0.143266 20.4558 1.13633 19.7483 1.31397C17.8901 -0.301461 15.1282 -0.372836 13.1536 0.801059C11.5366 1.7626 10.6686 3.41381 10.9581 5.34379C7.8111 4.92138 5.15955 3.47845 3.0661 1.046L2.40399 0.276809L1.90924 1.15564C1.28394 2.26613 1.07629 3.53584 1.3244 4.73081C1.42621 5.22105 1.59924 5.68863 1.83893 6.12645L1.27094 5.91356L1.20355 6.83153C1.13525 7.76402 1.45624 8.85255 2.06232 9.74307C2.23297 9.99386 2.4527 10.2693 2.7312 10.541L2.43768 10.4974L2.79584 11.5492C3.2666 12.9313 4.24438 14.0005 5.51331 14.5949C4.24603 15.115 3.22229 15.4469 1.53955 15.9824L0 16.4719L1.422 17.2239C1.96417 17.5106 3.88 18.4683 5.77295 18.7556C9.98071 19.3939 14.7182 18.8741 17.9075 16.0957C20.5939 13.7555 21.4753 10.4267 21.2922 6.96259C21.2646 6.43816 21.4131 5.93765 21.7104 5.55349C22.3061 4.7843 23.9963 2.5426 24 2.53746V2.53746ZM20.586 4.73878C20.0922 5.37656 19.8448 6.19109 19.8891 7.03202C20.0739 10.5263 19.0909 13.2361 16.9675 15.0858C14.4869 17.2468 10.4859 18.0949 5.99066 17.4129C5.17657 17.2894 4.33521 17.013 3.63885 16.7368C5.04968 16.2673 6.13916 15.8488 7.89862 15.0433L10.3548 13.9188L7.64301 13.7509C6.34406 13.6705 5.26245 13.0616 4.5976 12.073C4.95062 12.0531 5.29102 11.9979 5.62994 11.9065L8.21631 11.2097L5.60834 10.592C4.34106 10.2918 3.61871 9.55834 3.23584 8.99583C2.98444 8.6262 2.82019 8.24754 2.72168 7.89845C2.98315 7.96628 3.28802 8.01463 3.77966 8.06175L6.19354 8.2927L4.28101 6.84959C2.90295 5.80995 2.35071 4.248 2.75555 2.74645C7.05634 7.06124 12.106 6.73695 12.6143 6.85101C12.5024 5.79985 12.4995 5.79738 12.4702 5.69731C11.8193 3.47155 13.2458 2.3414 13.8893 1.95884C15.2333 1.15989 17.3666 1.03945 18.8443 2.35574C19.1635 2.63983 19.595 2.75159 19.999 2.65453C20.3615 2.56739 20.6591 2.47512 20.9504 2.37469L20.3439 4.04982L21.1181 4.05035C20.972 4.23986 20.7968 4.46674 20.586 4.73878Z" fill="black"/>
</svg>
